<?xml version="1.0" standalone="no"?>
<!DOCTYPE svg PUBLIC "-//W3C//DTD SVG 20010904//EN"
 "http://www.w3.org/TR/2001/REC-SVG-20010904/DTD/svg10.dtd">
<svg version="1.0" xmlns="http://www.w3.org/2000/svg"
 width="300.000000pt" height="61.000000pt" viewBox="0 0 300.000000 61.000000"
 preserveAspectRatio="xMidYMid meet">
<metadata>
Created by potrace 1.10, written by Peter Selinger 2001-2011
</metadata>
<g transform="translate(0.000000,61.000000) scale(0.100000,-0.100000)"
fill="#FFFFFF" stroke="none">
<path d="M1665 598 c-27 -14 -75 -60 -75 -70 0 -4 33 -8 73 -8 88 0 107 -14
107 -78 l0 -42 46 0 46 0 -4 65 c-3 51 -9 70 -28 91 -48 51 -117 69 -165 42z"/>
<path d="M0 416 l0 -186 80 0 c90 0 132 14 170 55 22 23 25 37 28 116 l4 89
-44 0 -44 0 4 -64 c4 -55 1 -67 -17 -85 -13 -13 -34 -21 -56 -21 l-35 0 0 95
0 95 90 0 c102 0 110 7 59 56 -29 28 -35 29 -135 32 l-104 4 0 -186z"/>
<path d="M426 583 c-2 -10 -8 -39 -12 -65 l-6 -48 41 0 c30 0 41 -4 41 -15 0
-11 -12 -15 -44 -15 -40 0 -45 -2 -50 -27 -7 -35 -66 -389 -66 -397 0 -3 20
-6 45 -6 49 0 45 -5 62 90 l9 45 91 3 92 3 -5 27 c-3 15 -20 115 -37 222 l-33
195 -61 3 c-52 2 -62 0 -67 -15z m82 -242 c16 -116 16 -111 -18 -111 -16 0
-30 5 -30 11 0 34 25 189 30 189 4 0 12 -40 18 -89z"/>
<path d="M700 591 c0 -8 72 -217 96 -281 3 -9 14 12 26 50 20 62 20 68 5 125
-29 112 -31 115 -82 115 -25 0 -45 -4 -45 -9z"/>
<path d="M916 576 c-3 -13 -9 -31 -12 -40 -5 -13 2 -16 44 -16 44 0 50 3 56
24 3 13 9 31 12 40 5 13 -2 16 -44 16 -44 0 -50 -3 -56 -24z"/>
<path d="M1070 560 l0 -40 45 0 45 0 0 40 0 40 -45 0 -45 0 0 -40z"/>
<path d="M1220 496 l0 -106 45 0 44 0 61 -190 61 -190 50 0 49 0 0 95 0 95
-45 0 -44 0 -20 68 c-11 37 -38 125 -59 197 l-39 130 -52 3 -51 3 0 -105z"/>
<path d="M1440 415 l0 -185 45 0 45 0 0 185 0 185 -45 0 -45 0 0 -185z"/>
<path d="M2006 583 c-2 -10 -8 -39 -12 -65 l-6 -48 40 0 c46 0 40 12 62 -130
16 -104 15 -110 -20 -110 -17 0 -30 5 -30 13 0 12 15 114 25 170 4 26 3 27
-40 27 -25 0 -45 -3 -45 -8 0 -4 -16 -97 -35 -207 -19 -110 -35 -203 -35 -207
0 -5 20 -8 45 -8 49 0 45 -5 62 90 l9 45 92 3 92 3 -6 37 c-3 20 -20 120 -38
222 l-32 185 -61 3 c-52 2 -62 0 -67 -15z"/>
<path d="M2280 490 l0 -110 45 0 c29 0 45 -4 45 -13 0 -8 -14 -11 -45 -9 l-45
4 0 -176 0 -176 45 0 45 0 1 168 c0 106 4 156 9 137 4 -16 22 -92 40 -168 l32
-137 37 0 38 0 14 73 c18 95 19 91 -21 97 l-34 5 -40 208 -40 207 -63 0 -63 0
0 -110z"/>
<path d="M2565 578 c-3 -13 -20 -103 -39 -200 l-33 -178 37 0 37 0 14 73 14
72 3 -167 2 -168 45 0 45 0 0 295 0 295 -60 0 c-54 0 -60 -2 -65 -22z"/>
<path d="M2742 558 l3 -43 128 -3 127 -3 0 46 0 45 -131 0 -130 0 3 -42z"/>
<path d="M852 371 c-39 -120 -42 -135 -42 -245 l0 -116 45 0 45 0 0 119 c0
114 2 125 40 233 22 62 40 119 40 126 0 8 -15 12 -43 12 l-44 0 -41 -129z"/>
<path d="M1077 493 c-4 -3 -7 -114 -7 -245 l0 -238 45 0 45 0 0 245 0 245 -38
0 c-21 0 -42 -3 -45 -7z"/>
<path d="M1582 291 c3 -208 3 -210 28 -236 68 -73 152 -73 220 0 21 23 25 38
29 106 l3 79 -46 0 -46 0 0 -59 c0 -51 -3 -62 -22 -75 -28 -20 -43 -20 -62 0
-13 13 -16 46 -16 205 l0 189 -46 0 -45 0 3 -209z"/>
<path d="M2740 305 l0 -185 45 0 45 0 0 70 0 70 60 0 60 0 0 45 0 45 -60 0
-60 0 0 70 0 70 -45 0 -45 0 0 -185z"/>
<path d="M1220 191 l0 -181 45 0 45 0 -2 177 -3 178 -42 3 -43 3 0 -180z"/>
<path d="M1720 305 l0 -45 70 0 70 0 0 45 0 45 -70 0 -70 0 0 -45z"/>
<path d="M0 110 l0 -100 45 0 45 0 0 100 0 100 -45 0 -45 0 0 -100z"/>
<path d="M545 83 c13 -73 13 -73 61 -73 l45 0 -7 48 c-3 26 -8 50 -11 55 -2 4
-24 7 -49 7 l-45 0 6 -37z"/>
<path d="M2126 88 c13 -81 11 -78 60 -78 l47 0 -7 38 c-3 20 -6 45 -6 55 0 14
-9 17 -50 17 l-49 0 5 -32z"/>
<path d="M2747 93 c-4 -3 -7 -24 -7 -45 l0 -38 130 0 130 0 0 45 0 45 -123 0
c-68 0 -127 -3 -130 -7z"/>
</g>
</svg>
